<svg width="124" height="72" viewBox="0 0 124 72" fill="none" xmlns="http://www.w3.org/2000/svg">
<path fill-rule="evenodd" clip-rule="evenodd" d="M107.819 0.290555C106.637 0.447034 103.97 0.840008 101.892 1.16378C96.3164 2.03256 93.5326 2.45961 92.0374 2.67536L90.7038 2.8677L90.6593 3.39878C90.6288 3.76242 90.7791 4.29038 91.136 5.07366L91.6573 6.21746L91.3393 7.69467C91.1645 8.50714 90.9726 9.12046 90.9127 9.05748C90.7908 8.9293 88.6564 4.09182 88.4922 3.57156C88.4203 3.34366 88.2707 3.23815 88.0192 3.23815C87.817 3.23815 85.5467 3.53822 82.974 3.90496C80.4014 4.27171 78.2633 4.57177 78.2227 4.57177C78.0322 4.57177 78.4046 6.06291 78.7952 6.86412L79.232 7.76016L78.34 11.3892C77.8493 13.3854 77.0792 16.3521 76.6286 17.9821L75.8092 20.9457L75.8833 18.3525C75.9239 16.9263 75.9997 14.0064 76.0516 11.8639L76.146 7.96821L75.7274 6.55057L75.3088 5.13278L74.4118 5.23043C73.4053 5.33979 65.0894 6.58213 63.9961 6.78632C63.6082 6.85893 63.273 6.90057 63.2514 6.87894C63.2299 6.8573 63.3717 6.47944 63.5668 6.03905L63.9214 5.23858L63.6894 3.34929C63.5617 2.31025 63.397 1.45999 63.3235 1.45999C62.5171 1.45999 49.9447 3.41345 44.6198 4.36625C27.8695 7.36304 22.6969 8.6768 19.2069 10.8202C16.7345 12.3388 14.7998 14.7031 13.7124 17.5344C12.0959 21.7436 12.2357 24.7555 14.1814 27.6479C15.2001 29.1621 16.1635 29.9123 17.8733 30.5234C18.5263 30.7568 18.8929 30.9551 18.7624 31.0044C18.6401 31.0507 17.9352 31.3166 17.1961 31.5958C15.1575 32.3655 10.966 33.7066 8.33096 34.4324C7.03527 34.7892 5.92288 35.1348 5.85902 35.2001C5.73366 35.3285 4.36299 38.8292 3.17266 42.0613C2.76754 43.1616 1.86912 45.4818 1.17653 47.2172C0.483786 48.9529 -0.0443278 50.4738 0.00294161 50.5971C0.0503592 50.7202 0.391469 51.2449 0.76103 51.763L1.43318 52.7048L2.77924 52.1208C7.52145 50.0641 21.0386 44.8807 21.2109 45.0531C21.2426 45.0849 20.6361 47.2755 19.8631 49.9208C16.9189 59.9948 14.4284 68.633 14.2648 69.3373C14.1931 69.6464 14.3177 69.8849 14.923 70.5968C15.3336 71.0799 15.7487 71.465 15.8455 71.4527C15.9421 71.4404 17.3547 71.0547 18.9847 70.5955C23.767 69.2482 29.8812 67.7803 32.9703 67.2377C35.4406 66.8038 35.859 66.6918 35.9608 66.4369C36.026 66.2739 36.5573 64.4402 37.1418 62.362C37.7262 60.2838 38.2522 58.4963 38.3109 58.3899C38.3715 58.2795 38.7234 59.2672 39.1288 60.6867C39.7466 62.849 40.816 65.4738 41.0795 65.4738C41.1272 65.4738 42.3433 65.2765 43.7821 65.0354C45.2208 64.7942 48.7318 64.2574 51.5843 63.8423C57.8733 62.927 59.333 62.6407 61.0053 61.9949C62.3337 61.4819 64.2965 60.4321 65.338 59.6777L65.9288 59.2496L66.527 60.2872C66.8559 60.8578 67.2247 61.3247 67.3463 61.3247C67.468 61.3247 69.239 61.1263 71.2821 60.8837C74.8148 60.4642 81.3409 59.742 84.7025 59.3984C89.3297 58.9255 91.9912 58.0904 94.8868 56.203C95.598 55.7395 96.6315 54.9242 97.1834 54.3914C97.7354 53.8585 98.1869 53.4506 98.1869 53.485C98.1869 53.5192 97.95 54.147 97.6603 54.8799L97.1338 56.2125L97.6945 57.398C98.003 58.0499 98.2582 58.596 98.2616 58.6115C98.265 58.627 100.716 58.4154 103.708 58.1411C106.701 57.8669 111.14 57.49 113.574 57.3036L117.998 56.9647L118.191 56.5286C118.298 56.2887 118.999 54.9192 119.751 53.4853C120.502 52.0513 121.417 50.293 121.785 49.5779L122.453 48.2779L122.152 47.0588C121.986 46.3885 121.838 45.8227 121.823 45.8017C121.807 45.7806 121.17 45.8281 120.407 45.9069C119.644 45.9859 118.997 46.0282 118.97 46.001C118.942 45.9736 119.256 44.6131 119.666 42.9775L120.412 40.0038L119.992 38.8166C119.504 37.4369 119.481 37.4677 121.015 37.4677H122.036L122.257 36.6898C122.379 36.262 122.821 34.46 123.239 32.6854L124 29.4589L123.367 27.7516C123.019 26.8127 122.696 26.0208 122.649 25.9919C122.575 25.9469 118.291 26.4621 116.47 26.7349L115.861 26.8263L117.302 25.3678C120.751 21.8764 123.091 16.7045 123.325 12.0549C123.451 9.5727 122.874 7.43713 121.656 5.87561C121.421 5.57392 120.998 4.91807 120.715 4.41826C119.59 2.42894 117.078 0.696865 114.604 0.205203C113.087 -0.0963432 110.495 -0.0635949 107.819 0.290555ZM112.173 11.67C112.323 11.7945 112.308 12.0866 112.098 13.1384C111.643 15.4246 110.98 16.8086 109.682 18.1827C108.962 18.9443 107.882 19.6504 107.706 19.4744C107.629 19.3975 109.54 11.7825 109.712 11.4793C109.811 11.3063 111.932 11.4707 112.173 11.67ZM59.8083 13.2452C59.8083 13.9928 47.2453 35.4749 46.9693 35.199C46.9059 35.1355 47.0547 34.6128 49.0634 27.836C51.1504 20.796 52.9944 14.7657 53.1396 14.5062C53.3075 14.2061 59.8083 12.9768 59.8083 13.2452ZM64.8464 18.3693C63.4202 20.9715 62.231 23.1657 62.2037 23.2456C62.1766 23.3254 62.2433 23.3577 62.3519 23.3173C62.4607 23.2767 63.5083 23.0792 64.6803 22.8782C65.8521 22.6773 66.8433 22.4805 66.8828 22.4408C66.9224 22.4012 67.0151 21.2151 67.0888 19.805C67.1624 18.3949 67.2796 16.441 67.3491 15.463C67.4186 14.485 67.4674 13.6743 67.4576 13.6616C67.4477 13.6487 66.2726 15.7672 64.8464 18.3693ZM39.1665 19.4095C38.7261 20.7434 37.9437 23.2205 37.4276 24.9141L36.4893 27.9936L36.0168 26.6922C34.4941 22.499 33.4236 21.2826 30.4296 20.3433C29.9599 20.1959 29.6265 20.0256 29.6887 19.9649C29.9169 19.7422 39.7665 16.8433 39.9225 16.9531C39.9469 16.9703 39.6067 18.0756 39.1665 19.4095ZM85.7989 27.7713C86.0794 28.9071 86.3522 29.9752 86.4054 30.1447C86.4962 30.4342 86.4186 30.4633 85.1288 30.622C84.3734 30.715 83.7276 30.7632 83.6936 30.7291C83.6595 30.695 83.7771 30.1802 83.9551 29.585C84.8468 26.602 85.1737 25.5907 85.2288 25.6456C85.262 25.6788 85.5185 26.6353 85.7989 27.7713ZM103.768 31.6037C104.005 32.0993 103.995 32.1644 103.358 34.3446C103 35.573 102.673 36.5769 102.632 36.5757C102.592 36.5745 102.416 36.2247 102.243 35.7982C102.07 35.3717 101.744 34.5692 101.519 34.0149C101.288 33.4445 100.836 32.7048 100.478 32.3108L99.845 31.6146L101.276 31.3709C103.424 31.0047 103.485 31.0105 103.768 31.6037ZM64.6982 32.1211C64.6982 32.6034 64.7361 33.0969 64.7825 33.2178C64.8459 33.383 64.7083 33.4626 64.2268 33.5392C63.5261 33.6505 60.4874 34.3114 60.0599 34.4453C59.8493 34.5113 59.936 34.2439 60.4688 33.183C61.0134 32.0986 61.2095 31.8356 61.4768 31.8298C61.6593 31.8259 62.3755 31.7013 63.0682 31.553C63.761 31.4045 64.4112 31.2744 64.513 31.2637C64.6425 31.2501 64.6982 31.5079 64.6982 32.1211ZM33.2994 37.8669L32.9026 39.1552L32.1672 39.3459C31.7627 39.4507 31.3746 39.5378 31.3046 39.5394C31.2349 39.5409 31.557 39.1324 32.0208 38.6315C32.4845 38.1307 33.0341 37.4639 33.2418 37.1497C33.4497 36.8356 33.637 36.5787 33.658 36.5787C33.6791 36.5787 33.5177 37.1583 33.2994 37.8669ZM55.2147 37.2455C54.6457 37.8326 54.4738 37.8878 54.4738 37.4836C54.4738 37.2993 54.6642 37.1241 55.0295 36.9725C55.3351 36.8458 55.6149 36.7387 55.6512 36.7345C55.6877 36.7303 55.4912 36.9602 55.2147 37.2455ZM44.6887 38.9398C44.773 39.0974 44.8425 39.3475 44.8431 39.4954C44.8446 39.8312 43.6516 44.1686 43.5154 44.323C43.4606 44.3851 43.0639 43.2964 42.6337 41.9038C42.2036 40.5111 41.8743 39.3542 41.902 39.333C41.9748 39.2776 44.1409 38.6935 44.3553 38.6716C44.4543 38.6615 44.6042 38.7821 44.6887 38.9398ZM92.8909 40.8086C93.3384 40.9804 92.6525 43.6783 91.6889 45.536C91.1378 46.5984 89.703 48.2921 89.5129 48.1048C89.3942 47.9881 89.7261 46.5617 90.6676 43.1417C91.3288 40.74 91.2891 40.7987 92.2846 40.7479C92.5021 40.7367 92.7749 40.7642 92.8909 40.8086ZM69.8845 43.2952C69.8845 43.3217 69.6815 44.0665 69.4334 44.9499C68.9741 46.5857 68.7126 47.2487 68.7035 46.7998C68.6887 46.0527 66.9191 44.8072 65.2502 44.3692C64.3866 44.1425 64.4365 44.1046 66.0318 43.7771C67.9201 43.3893 69.8845 43.1436 69.8845 43.2952ZM53.0464 50.4132C53.6732 51.4828 55.1599 52.5821 55.9793 52.5821C56.1943 52.5821 56.2604 52.6329 56.1672 52.7261C56.0187 52.8746 51.6604 53.1621 51.5945 53.0277C51.5494 52.9358 52.5411 49.7667 52.6149 49.7667C52.6438 49.7667 52.838 50.0576 53.0464 50.4132Z" fill="url(#paint0_linear_49_1239)"/>
<path fill-rule="evenodd" clip-rule="evenodd" d="M107.819 0.290555C106.637 0.447034 103.97 0.840008 101.892 1.16378C96.3164 2.03256 93.5326 2.45961 92.0374 2.67536L90.7038 2.8677L90.6593 3.39878C90.6288 3.76242 90.7791 4.29038 91.136 5.07366L91.6573 6.21746L91.3393 7.69467C91.1645 8.50714 90.9726 9.12046 90.9127 9.05748C90.7908 8.9293 88.6564 4.09182 88.4922 3.57156C88.4203 3.34366 88.2707 3.23815 88.0192 3.23815C87.817 3.23815 85.5467 3.53822 82.974 3.90496C80.4014 4.27171 78.2633 4.57177 78.2227 4.57177C78.0322 4.57177 78.4046 6.06291 78.7952 6.86412L79.232 7.76016L78.34 11.3892C77.8493 13.3854 77.0792 16.3521 76.6286 17.9821L75.8092 20.9457L75.8833 18.3525C75.9239 16.9263 75.9997 14.0064 76.0516 11.8639L76.146 7.96821L75.7274 6.55057L75.3088 5.13278L74.4118 5.23043C73.4053 5.33979 65.0894 6.58213 63.9961 6.78632C63.6082 6.85893 63.273 6.90057 63.2514 6.87894C63.2299 6.8573 63.3717 6.47944 63.5668 6.03905L63.9214 5.23858L63.6894 3.34929C63.5617 2.31025 63.397 1.45999 63.3235 1.45999C62.5171 1.45999 49.9447 3.41345 44.6198 4.36625C27.8695 7.36304 22.6969 8.6768 19.2069 10.8202C16.7345 12.3388 14.7998 14.7031 13.7124 17.5344C12.0959 21.7436 12.2357 24.7555 14.1814 27.6479C15.2001 29.1621 16.1635 29.9123 17.8733 30.5234C18.5263 30.7568 18.8929 30.9551 18.7624 31.0044C18.6401 31.0507 17.9352 31.3166 17.1961 31.5958C15.1575 32.3655 10.966 33.7066 8.33096 34.4324C7.03527 34.7892 5.92288 35.1348 5.85902 35.2001C5.73366 35.3285 4.36299 38.8292 3.17266 42.0613C2.76754 43.1616 1.86912 45.4818 1.17653 47.2172C0.483786 48.9529 -0.0443278 50.4738 0.00294161 50.5971C0.0503592 50.7202 0.391469 51.2449 0.76103 51.763L1.43318 52.7048L2.77924 52.1208C7.52145 50.0641 21.0386 44.8807 21.2109 45.0531C21.2426 45.0849 20.6361 47.2755 19.8631 49.9208C16.9189 59.9948 14.4284 68.633 14.2648 69.3373C14.1931 69.6464 14.3177 69.8849 14.923 70.5968C15.3336 71.0799 15.7487 71.465 15.8455 71.4527C15.9421 71.4404 17.3547 71.0547 18.9847 70.5955C23.767 69.2482 29.8812 67.7803 32.9703 67.2377C35.4406 66.8038 35.859 66.6918 35.9608 66.4369C36.026 66.2739 36.5573 64.4402 37.1418 62.362C37.7262 60.2838 38.2522 58.4963 38.3109 58.3899C38.3715 58.2795 38.7234 59.2672 39.1288 60.6867C39.7466 62.849 40.816 65.4738 41.0795 65.4738C41.1272 65.4738 42.3433 65.2765 43.7821 65.0354C45.2208 64.7942 48.7318 64.2574 51.5843 63.8423C57.8733 62.927 59.333 62.6407 61.0053 61.9949C62.3337 61.4819 64.2965 60.4321 65.338 59.6777L65.9288 59.2496L66.527 60.2872C66.8559 60.8578 67.2247 61.3247 67.3463 61.3247C67.468 61.3247 69.239 61.1263 71.2821 60.8837C74.8148 60.4642 81.3409 59.742 84.7025 59.3984C89.3297 58.9255 91.9912 58.0904 94.8868 56.203C95.598 55.7395 96.6315 54.9242 97.1834 54.3914C97.7354 53.8585 98.1869 53.4506 98.1869 53.485C98.1869 53.5192 97.95 54.147 97.6603 54.8799L97.1338 56.2125L97.6945 57.398C98.003 58.0499 98.2582 58.596 98.2616 58.6115C98.265 58.627 100.716 58.4154 103.708 58.1411C106.701 57.8669 111.14 57.49 113.574 57.3036L117.998 56.9647L118.191 56.5286C118.298 56.2887 118.999 54.9192 119.751 53.4853C120.502 52.0513 121.417 50.293 121.785 49.5779L122.453 48.2779L122.152 47.0588C121.986 46.3885 121.838 45.8227 121.823 45.8017C121.807 45.7806 121.17 45.8281 120.407 45.9069C119.644 45.9859 118.997 46.0282 118.97 46.001C118.942 45.9736 119.256 44.6131 119.666 42.9775L120.412 40.0038L119.992 38.8166C119.504 37.4369 119.481 37.4677 121.015 37.4677H122.036L122.257 36.6898C122.379 36.262 122.821 34.46 123.239 32.6854L124 29.4589L123.367 27.7516C123.019 26.8127 122.696 26.0208 122.649 25.9919C122.575 25.9469 118.291 26.4621 116.47 26.7349L115.861 26.8263L117.302 25.3678C120.751 21.8764 123.091 16.7045 123.325 12.0549C123.451 9.5727 122.874 7.43713 121.656 5.87561C121.421 5.57392 120.998 4.91807 120.715 4.41826C119.59 2.42894 117.078 0.696865 114.604 0.205203C113.087 -0.0963432 110.495 -0.0635949 107.819 0.290555ZM113.698 1.62032C119.462 2.41753 121.678 7.62902 119.318 14.8344C117.875 19.2392 114.933 22.9059 111.218 24.9316C109.889 25.6559 107.095 26.5498 104.702 27.0165C102.897 27.3684 97.1367 28.1324 96.2881 28.1324C95.8591 28.1324 95.7856 28.5183 97.3317 22.6497C98.6975 17.4661 101.476 6.76187 101.844 5.26837C102.088 4.27689 102.086 4.25022 101.762 3.58341C101.581 3.21089 101.453 2.88919 101.477 2.86859C101.527 2.82592 107.147 1.99107 108.93 1.76154C111.469 1.43465 112.199 1.41302 113.698 1.62032ZM59.8277 6.10321C59.3473 7.63228 58.9224 8.91508 58.8836 8.95405C58.8446 8.99287 57.0863 9.32524 54.9763 9.69258C52.8662 10.0599 51.0061 10.416 50.8426 10.4842C50.6318 10.5719 50.4682 10.9041 50.2797 11.6277C49.9402 12.9312 46.8898 23.3952 45.6628 27.4656C45.1469 29.1771 44.4442 31.5776 44.1013 32.8001C43.7584 34.0226 43.4313 35.0729 43.3745 35.1341C43.2527 35.2652 35.3131 36.8766 35.2236 36.7885C35.1899 36.7554 35.6724 35.1078 36.2956 33.1271C36.9187 31.1464 38.0283 27.5952 38.7612 25.2358C39.4943 22.8762 40.7568 18.9787 41.5667 16.5745C42.3768 14.1704 43.018 12.1819 42.9916 12.1555C42.9411 12.1049 37.1492 13.5755 35.5067 14.0559C34.977 14.2107 33.3433 14.6759 31.8763 15.0894C26.9193 16.4868 25.5483 17.138 24.8839 18.4109C24.5859 18.9814 24.6001 19.7862 24.9141 20.133C25.1575 20.4021 26.5876 20.916 29.8196 21.8955C32.421 22.684 33.3915 23.668 33.7314 25.8618C34.1734 28.7142 32.4083 33.0812 29.8437 35.4801C27.7231 37.4639 24.1148 39.3301 17.3547 41.9391C14.1312 43.1832 5.29134 46.7334 3.81932 47.3749C3.05782 47.7068 2.4654 47.8974 2.50274 47.7983C2.54008 47.6991 3.19192 45.951 3.9512 43.9136C4.71033 41.8761 5.64297 39.3756 6.0235 38.3568L6.7155 36.5046L8.0343 36.0917C14.866 33.9529 20.3463 32.0169 22.1593 31.1018C23.305 30.5233 23.9794 29.9233 24.3117 29.1861C24.9227 27.8314 24.3301 27.5013 20.6887 27.1675C17.8222 26.9047 17.1709 26.7706 16.2041 26.2444C14.5481 25.3432 13.9199 24.006 14.0646 21.6915C14.2485 18.7526 15.9766 15.2726 18.2106 13.3421C21.6332 10.3846 25.0679 9.36451 41.9526 6.29036C47.5702 5.26762 49.87 4.88073 57.5115 3.67291C59.06 3.42827 60.3936 3.20689 60.4751 3.18125C60.5566 3.15547 60.6407 3.17696 60.6621 3.22882C60.6834 3.28068 60.3079 4.57414 59.8277 6.10321ZM99.5939 3.48221C99.4525 3.69796 98.7833 6.05061 98.1066 8.71044C95.8977 17.3933 93.0397 27.8583 92.8222 28.0608C92.7125 28.1629 87.4782 28.7348 87.3969 28.6535C87.3118 28.5683 85.4387 21.0112 84.6852 17.713L84.3528 16.2586L84.032 17.5648C83.7202 18.834 81.4317 27.0105 80.8876 28.7992L80.6172 29.6883L77.7625 30.039C76.1925 30.232 74.8743 30.3561 74.8331 30.3151C74.738 30.2198 76.2739 24.2554 77.6085 19.538C78.1734 17.5412 79.1047 14.0405 79.678 11.7585L80.7206 7.60946L80.3069 6.84056C80.0794 6.41765 79.9252 6.0435 79.9642 6.00912C80.003 5.97474 81.6247 5.71454 83.5677 5.43077C85.9737 5.07944 87.1155 4.96652 87.147 5.07677C87.6304 6.76543 89.7147 14.4721 89.9454 15.4242C90.118 16.1362 90.3016 16.7197 90.3537 16.7208C90.4055 16.7216 90.4789 16.5391 90.5166 16.315C90.5546 16.091 90.8624 14.9073 91.2007 13.6848C91.5389 12.4624 92.1034 10.1887 92.455 8.63235L93.0942 5.80256L92.7225 5.04298C92.5178 4.62526 92.38 4.25378 92.4162 4.21762C92.4876 4.14635 98.9266 3.13784 99.5005 3.10805C99.8459 3.09027 99.8473 3.0956 99.5939 3.48221ZM73.5333 7.20197C73.4915 7.34452 73.4183 9.56174 73.3704 12.129C73.2002 21.2721 72.968 30.4302 72.9049 30.4945C72.8374 30.5634 67.1953 31.3767 66.7158 31.3866C66.4497 31.3921 66.4415 31.2855 66.5429 29.1058L66.6493 26.8194L65.7424 27.0308C65.2438 27.1472 63.6221 27.4441 62.139 27.6905C60.6557 27.937 59.3655 28.2206 59.2719 28.3207C59.1782 28.4209 58.5526 29.5182 57.8818 30.7592C56.7073 32.9317 56.6419 33.0189 56.1236 33.1124C55.8274 33.1658 54.1527 33.4965 52.4021 33.8473C50.6513 34.198 49.198 34.464 49.1723 34.4384C49.1467 34.4127 49.6195 33.6336 50.2232 32.7069C53.0511 28.3655 60.3242 15.6796 62.6954 10.9526L63.2483 9.85039L62.9292 9.19351C62.7538 8.83239 62.6431 8.50373 62.6835 8.46343C62.7748 8.37215 72.4427 6.97599 73.1173 6.95673C73.5189 6.94517 73.5951 6.99022 73.5333 7.20197ZM108.352 7.54426C107.871 7.61806 107.439 7.71734 107.392 7.76476C107.268 7.88893 103.809 21.8016 103.884 21.8764C103.993 21.9859 106.96 21.4378 107.774 21.1577C110.705 20.1492 113.053 16.655 113.61 12.472C113.817 10.9111 113.723 9.98479 113.252 8.95523C112.703 7.75661 112.19 7.46691 110.56 7.4358C109.826 7.42172 108.833 7.47062 108.352 7.54426ZM112.173 11.67C112.323 11.7945 112.308 12.0866 112.098 13.1384C111.643 15.4246 110.98 16.8086 109.682 18.1827C108.962 18.9443 107.882 19.6504 107.706 19.4744C107.629 19.3975 109.54 11.7825 109.712 11.4793C109.811 11.3063 111.932 11.4707 112.173 11.67ZM59.8083 13.2452C59.8083 13.9928 47.2453 35.4749 46.9693 35.199C46.9059 35.1355 47.0547 34.6128 49.0634 27.836C51.1504 20.796 52.9944 14.7657 53.1396 14.5062C53.3075 14.2061 59.8083 12.9768 59.8083 13.2452ZM64.8464 18.3693C63.4202 20.9715 62.231 23.1657 62.2037 23.2456C62.1766 23.3254 62.2433 23.3577 62.3519 23.3173C62.4607 23.2767 63.5083 23.0792 64.6803 22.8782C65.8521 22.6773 66.8433 22.4805 66.8828 22.4408C66.9224 22.4012 67.0151 21.2151 67.0888 19.805C67.1624 18.3949 67.2796 16.441 67.3491 15.463C67.4186 14.485 67.4674 13.6743 67.4576 13.6616C67.4477 13.6487 66.2726 15.7672 64.8464 18.3693ZM39.1665 19.4095C38.7261 20.7434 37.9437 23.2205 37.4276 24.9141L36.4893 27.9936L36.0168 26.6922C34.4941 22.499 33.4236 21.2826 30.4296 20.3433C29.9599 20.1959 29.6265 20.0256 29.6887 19.9649C29.9169 19.7422 39.7665 16.8433 39.9225 16.9531C39.9469 16.9703 39.6067 18.0756 39.1665 19.4095ZM85.7989 27.7713C86.0794 28.9071 86.3522 29.9752 86.4054 30.1447C86.4962 30.4342 86.4186 30.4633 85.1288 30.622C84.3734 30.715 83.7276 30.7632 83.6936 30.7291C83.6595 30.695 83.7771 30.1802 83.9551 29.585C84.8468 26.602 85.1737 25.5907 85.2288 25.6456C85.262 25.6788 85.5185 26.6353 85.7989 27.7713ZM121.007 28.762C120.861 29.2715 120.534 30.5494 120.281 31.6017C120.029 32.6541 119.793 33.5444 119.757 33.5801C119.722 33.6158 117.738 33.8493 115.349 34.0992C112.959 34.349 110.987 34.5649 110.967 34.579C110.946 34.5929 110.706 35.4654 110.433 36.5176C110.16 37.57 109.886 38.5901 109.825 38.7845C109.722 39.1059 109.746 39.1296 110.084 39.0447C110.289 38.9934 111.946 38.7849 113.768 38.5816C115.589 38.3782 117.242 38.1735 117.439 38.1268C117.722 38.06 117.765 38.0834 117.644 38.2364C117.559 38.3433 117.202 39.5311 116.851 40.8759C116.5 42.2206 116.2 43.3394 116.185 43.362C116.17 43.3846 114.465 43.5754 112.396 43.7858C110.327 43.9964 108.594 44.2113 108.546 44.2634C108.442 44.3752 107.346 48.3116 107.407 48.3547C107.453 48.3873 109.957 48.1686 115.192 47.6747C117.088 47.4958 118.668 47.3791 118.704 47.4152C118.77 47.4804 115.853 53.323 115.755 53.323C115.658 53.323 102.993 54.5 101.188 54.6769C100.19 54.7747 99.3394 54.8214 99.2988 54.7806C99.2581 54.7399 99.3857 54.2453 99.5825 53.6815C99.9449 52.6426 102.906 41.6486 104.557 35.2136L105.458 31.7001L105.083 30.9583C104.876 30.5506 104.707 30.1579 104.707 30.0857C104.707 30.0137 106.491 29.7071 108.671 29.4044C115.732 28.4239 121.078 27.7313 121.177 27.7842C121.231 27.8125 121.154 28.2526 121.007 28.762ZM103.768 31.6037C104.005 32.0993 103.995 32.1644 103.358 34.3446C103 35.573 102.673 36.5769 102.632 36.5757C102.592 36.5745 102.416 36.2247 102.243 35.7982C102.07 35.3717 101.744 34.5692 101.519 34.0149C101.288 33.4445 100.836 32.7048 100.478 32.3108L99.845 31.6146L101.276 31.3709C103.424 31.0047 103.485 31.0105 103.768 31.6037ZM64.6982 32.1211C64.6982 32.6034 64.7361 33.0969 64.7825 33.2178C64.8459 33.383 64.7083 33.4626 64.2268 33.5392C63.5261 33.6505 60.4874 34.3114 60.0599 34.4453C59.8493 34.5113 59.936 34.2439 60.4688 33.183C61.0134 32.0986 61.2095 31.8356 61.4768 31.8298C61.6593 31.8259 62.3755 31.7013 63.0682 31.553C63.761 31.4045 64.4112 31.2744 64.513 31.2637C64.6425 31.2501 64.6982 31.5079 64.6982 32.1211ZM95.8953 31.3796C97.0044 31.5401 97.9831 31.9906 98.8167 32.7244C101.476 35.0656 101.393 41.0635 98.6228 46.729C96.3201 51.4379 92.0102 54.6643 86.9252 55.4864C85.4385 55.7268 77.844 56.5732 77.7671 56.5071C77.7423 56.4858 78.0203 55.4106 78.3846 54.1177C78.7489 52.8248 79.2907 50.8336 79.5884 49.6926C79.8861 48.5516 80.7877 45.1509 81.5918 42.1354C82.3959 39.1199 83.2151 36.0471 83.4119 35.307L83.7699 33.9612L83.4231 33.2788C83.1044 32.6517 83.0971 32.5902 83.3338 32.5188C83.6399 32.4264 88.4814 31.7686 90.4815 31.5477C91.2558 31.4622 92.0893 31.3689 92.3338 31.3403C93.2421 31.2345 95.0289 31.2541 95.8953 31.3796ZM80.5976 33.3563C80.382 33.5931 80.0286 34.8004 79.3722 37.5418C77.7043 44.5081 74.5925 56.6661 74.4381 56.8206C74.3591 56.8995 68.5768 57.6128 67.9779 57.6174C67.6855 57.6198 67.6424 57.5648 67.7186 57.2868C67.7689 57.1035 68.5153 54.1862 69.3774 50.8039C70.2395 47.4217 71.3082 43.3209 71.752 41.6909C72.196 40.0609 72.7039 38.0236 72.8809 37.1635L73.2024 35.5996L72.8189 34.9136C72.52 34.3789 72.48 34.2102 72.6374 34.1497C73.044 33.9937 80.719 32.8999 80.8381 32.9811C80.8724 33.0044 80.7642 33.1733 80.5976 33.3563ZM70.5303 34.8375C70.368 35.021 70.1465 35.5377 70.0382 35.9859C69.9297 36.4342 69.6317 37.4677 69.3761 38.2827L68.9111 39.7645L67.9531 39.8081C66.4973 39.8742 64.4167 40.2365 63.0956 40.6538C60.9667 41.3263 59.8161 42.4202 59.8106 43.7766C59.8066 44.773 60.1037 44.9333 62.9636 45.4778C64.3323 45.7383 65.7327 46.093 66.0754 46.2661C66.9622 46.7139 67.3986 47.5681 67.4828 49.0207C67.5676 50.4845 67.3278 51.5877 66.6188 52.9961C65.1355 55.9428 62.5318 57.9627 58.8451 59.0267C57.6096 59.3834 49.4496 60.6471 49.3064 60.5041C49.2495 60.4472 49.9964 57.4461 50.5624 55.4565L50.7776 54.7003L52.873 54.5966C57.2516 54.38 59.5409 53.6617 60.413 52.2315C60.7237 51.7219 60.7828 50.9443 60.5447 50.4994C60.281 50.0064 59.5681 49.7655 57.6961 49.5367C54.8229 49.1857 53.7078 48.7266 53.0653 47.6302C52.556 46.7611 52.4685 45.8949 52.7515 44.526C53.4991 40.9111 55.5706 38.0825 58.5055 36.669C60.7108 35.607 65.9091 34.6022 69.5769 34.529L70.8253 34.5041L70.5303 34.8375ZM33.2994 37.8669L32.9026 39.1552L32.1672 39.3459C31.7627 39.4507 31.3746 39.5378 31.3046 39.5394C31.2349 39.5409 31.557 39.1324 32.0208 38.6315C32.4845 38.1307 33.0341 37.4639 33.2418 37.1497C33.4497 36.8356 33.637 36.5787 33.658 36.5787C33.6791 36.5787 33.5177 37.1583 33.2994 37.8669ZM55.2147 37.2455C54.6457 37.8326 54.4738 37.8878 54.4738 37.4836C54.4738 37.2993 54.6642 37.1241 55.0295 36.9725C55.3351 36.8458 55.6149 36.7387 55.6512 36.7345C55.6877 36.7303 55.4912 36.9602 55.2147 37.2455ZM90.148 36.9327C89.5976 37.037 89.1209 37.15 89.0885 37.184C89.056 37.2178 88.5257 39.2126 87.9102 41.6168C87.2945 44.021 86.4985 47.0382 86.1412 48.3219C85.7838 49.6056 85.4973 50.6549 85.5045 50.6538C88.9256 50.1349 90.1678 49.6384 91.4154 48.291C92.7789 46.8182 93.6345 44.9762 94.1035 42.5042C94.3932 40.9771 94.4052 38.8135 94.1277 38.1494C93.6341 36.9681 92.2278 36.5382 90.148 36.9327ZM52.2514 37.7248C52.0882 38.0293 51.9547 38.3623 51.9547 38.4648C51.9547 39.213 46.9467 58.977 46.3431 60.6105C46.2259 60.9279 46.0241 60.9844 43.714 61.3459C41.5851 61.679 41.1871 61.7064 41.0463 61.53C40.8577 61.2933 40.2341 59.212 38.8538 54.2121C38.3251 52.2969 37.8019 50.4711 37.6911 50.1549L37.4897 49.5801L37.0032 51.4144C36.5597 53.0871 34.7851 59.0697 33.7911 62.2434L33.3873 63.5325L32.6317 63.695C31.3921 63.9616 27.7528 64.5854 27.7067 64.5393C27.6477 64.4804 28.574 60.9313 30.0736 55.4716C30.7675 52.9451 31.8784 48.828 32.5425 46.3222L33.7498 41.7664L33.4402 41.3315C33.2698 41.0924 33.1816 40.8655 33.2443 40.8276C33.4258 40.7173 39.6122 39.3941 39.9462 39.3941C40.1378 39.3941 40.2485 39.4911 40.2485 39.6592C40.2485 39.805 40.8814 42.1556 41.655 44.8825C42.4285 47.6096 43.1044 50.0663 43.157 50.3419C43.2192 50.6687 43.2888 50.7718 43.3569 50.6383C43.4884 50.3804 44.9359 45.1528 45.7798 41.8872C46.3827 39.5549 46.4064 39.3864 46.2046 38.8803C46.0869 38.5855 46.0186 38.3164 46.0527 38.2823C46.1169 38.2181 51.83 37.2147 52.2884 37.1869C52.5285 37.1726 52.5258 37.213 52.2514 37.7248ZM44.6887 38.9398C44.773 39.0974 44.8425 39.3475 44.8431 39.4954C44.8446 39.8312 43.6516 44.1686 43.5154 44.323C43.4606 44.3851 43.0639 43.2964 42.6337 41.9038C42.2036 40.5111 41.8743 39.3542 41.902 39.333C41.9748 39.2776 44.1409 38.6935 44.3553 38.6716C44.4543 38.6615 44.6042 38.7821 44.6887 38.9398ZM92.8909 40.8086C93.3384 40.9804 92.6525 43.6783 91.6889 45.536C91.1378 46.5984 89.703 48.2921 89.5129 48.1048C89.3942 47.9881 89.7261 46.5617 90.6676 43.1417C91.3288 40.74 91.2891 40.7987 92.2846 40.7479C92.5021 40.7367 92.7749 40.7642 92.8909 40.8086ZM31.0828 41.3715C30.8869 41.5802 30.5157 42.5136 30.1548 43.7054C29.3055 46.5091 25.8653 58.4131 24.8059 62.2138C24.3175 63.966 23.8217 65.476 23.7042 65.5692C23.5865 65.6624 22.4767 65.9903 21.2376 66.2976C19.9985 66.6051 18.3346 67.0369 17.5399 67.2573C16.7452 67.4776 16.0962 67.6166 16.0974 67.5661C16.0986 67.5155 16.2681 66.9408 16.4739 66.2888C17.7312 62.3078 20.5497 52.7063 22.7547 44.893C22.8716 44.4786 22.8399 44.2923 22.573 43.8287C22.395 43.5196 22.2817 43.2379 22.3211 43.2026C22.3605 43.1675 24.1932 42.7229 26.3937 42.2147C28.5941 41.7066 30.5946 41.2368 30.8391 41.1708C31.0836 41.1048 31.3119 41.0448 31.3464 41.0374C31.3811 41.0301 31.2624 41.1804 31.0828 41.3715ZM69.8845 43.2952C69.8845 43.3217 69.6815 44.0665 69.4334 44.9499C68.9741 46.5857 68.7126 47.2487 68.7035 46.7998C68.6887 46.0527 66.9191 44.8072 65.2502 44.3692C64.3866 44.1425 64.4365 44.1046 66.0318 43.7771C67.9201 43.3893 69.8845 43.1436 69.8845 43.2952ZM53.0464 50.4132C53.6732 51.4828 55.1599 52.5821 55.9793 52.5821C56.1943 52.5821 56.2604 52.6329 56.1672 52.7261C56.0187 52.8746 51.6604 53.1621 51.5945 53.0277C51.5494 52.9358 52.5411 49.7667 52.6149 49.7667C52.6438 49.7667 52.838 50.0576 53.0464 50.4132Z" fill="#131313"/>
<defs>
<linearGradient id="paint0_linear_49_1239" x1="62" y1="0" x2="62" y2="71.453" gradientUnits="userSpaceOnUse">
<stop stop-color="#B2E200"/>
<stop offset="1" stop-color="white"/>
</linearGradient>
</defs>
</svg>
